<svg id="visual" viewBox="0 0 960 300" width="960" height="300" xmlns="http://www.w3.org/2000/svg" xmlns:xlink="http://www.w3.org/1999/xlink" version="1.1"><rect x="0" y="0" width="960" height="300" fill="#202731"></rect><path d="M0 230L17.8 229.2C35.7 228.3 71.3 226.7 106.8 221.8C142.3 217 177.7 209 213.2 200.2C248.7 191.3 284.3 181.7 320 181.2C355.7 180.7 391.3 189.3 426.8 196.8C462.3 204.3 497.7 210.7 533.2 210.3C568.7 210 604.3 203 640 201.3C675.7 199.7 711.3 203.3 746.8 202.8C782.3 202.3 817.7 197.7 853.2 193.8C888.7 190 924.3 187 942.2 185.5L960 184L960 301L942.2 301C924.3 301 888.7 301 853.2 301C817.7 301 782.3 301 746.8 301C711.3 301 675.7 301 640 301C604.3 301 568.7 301 533.2 301C497.7 301 462.3 301 426.8 301C391.3 301 355.7 301 320 301C284.3 301 248.7 301 213.2 301C177.7 301 142.3 301 106.8 301C71.3 301 35.7 301 17.8 301L0 301Z" fill="#3c31dd"></path><path d="M0 240L17.8 235.5C35.7 231 71.3 222 106.8 223C142.3 224 177.7 235 213.2 239.8C248.7 244.7 284.3 243.3 320 239.2C355.7 235 391.3 228 426.8 227.8C462.3 227.7 497.7 234.3 533.2 229.2C568.7 224 604.3 207 640 208.3C675.7 209.7 711.3 229.3 746.8 239.2C782.3 249 817.7 249 853.2 248.7C888.7 248.3 924.3 247.7 942.2 247.3L960 247L960 301L942.2 301C924.3 301 888.7 301 853.2 301C817.7 301 782.3 301 746.8 301C711.3 301 675.7 301 640 301C604.3 301 568.7 301 533.2 301C497.7 301 462.3 301 426.8 301C391.3 301 355.7 301 320 301C284.3 301 248.7 301 213.2 301C177.7 301 142.3 301 106.8 301C71.3 301 35.7 301 17.8 301L0 301Z" fill="#b402b7"></path><path d="M0 227L17.8 234.8C35.7 242.7 71.3 258.3 106.8 259.7C142.3 261 177.7 248 213.2 243.3C248.7 238.7 284.3 242.3 320 243.8C355.7 245.3 391.3 244.7 426.8 241.7C462.3 238.7 497.7 233.3 533.2 233.2C568.7 233 604.3 238 640 237.2C675.7 236.3 711.3 229.7 746.8 231.8C782.3 234 817.7 245 853.2 247.7C888.7 250.3 924.3 244.7 942.2 241.8L960 239L960 301L942.2 301C924.3 301 888.7 301 853.2 301C817.7 301 782.3 301 746.8 301C711.3 301 675.7 301 640 301C604.3 301 568.7 301 533.2 301C497.7 301 462.3 301 426.8 301C391.3 301 355.7 301 320 301C284.3 301 248.7 301 213.2 301C177.7 301 142.3 301 106.8 301C71.3 301 35.7 301 17.8 301L0 301Z" fill="#e60090"></path><path d="M0 265L17.8 269.3C35.7 273.7 71.3 282.3 106.8 282.8C142.3 283.3 177.7 275.7 213.2 268.8C248.7 262 284.3 256 320 259.8C355.7 263.7 391.3 277.3 426.8 276.7C462.3 276 497.7 261 533.2 257.8C568.7 254.7 604.3 263.3 640 268.3C675.7 273.3 711.3 274.7 746.8 270.5C782.3 266.3 817.7 256.7 853.2 252.7C888.7 248.7 924.3 250.3 942.2 251.2L960 252L960 301L942.2 301C924.3 301 888.7 301 853.2 301C817.7 301 782.3 301 746.8 301C711.3 301 675.7 301 640 301C604.3 301 568.7 301 533.2 301C497.7 301 462.3 301 426.8 301C391.3 301 355.7 301 320 301C284.3 301 248.7 301 213.2 301C177.7 301 142.3 301 106.8 301C71.3 301 35.7 301 17.8 301L0 301Z" fill="#ff0066"></path></svg>