<svg id="visual" viewBox="0 0 960 300" width="960" height="300" xmlns="http://www.w3.org/2000/svg" xmlns:xlink="http://www.w3.org/1999/xlink" version="1.1"><rect x="0" y="0" width="960" height="300" fill="#202731"></rect><path d="M0 86L22.8 88.7C45.7 91.3 91.3 96.7 137 101.3C182.7 106 228.3 110 274 112.8C319.7 115.7 365.3 117.3 411.2 113.2C457 109 503 99 548.8 93.5C594.7 88 640.3 87 686 90.5C731.7 94 777.3 102 823 102.5C868.7 103 914.3 96 937.2 92.5L960 89L960 0L937.2 0C914.3 0 868.7 0 823 0C777.3 0 731.7 0 686 0C640.3 0 594.7 0 548.8 0C503 0 457 0 411.2 0C365.3 0 319.7 0 274 0C228.3 0 182.7 0 137 0C91.3 0 45.7 0 22.8 0L0 0Z" fill="#ff0066"></path><path d="M0 84L22.8 79.7C45.7 75.3 91.3 66.7 137 68.7C182.7 70.7 228.3 83.3 274 85.2C319.7 87 365.3 78 411.2 77.5C457 77 503 85 548.8 87.5C594.7 90 640.3 87 686 84.7C731.7 82.3 777.3 80.7 823 80.2C868.7 79.7 914.3 80.3 937.2 80.7L960 81L960 0L937.2 0C914.3 0 868.7 0 823 0C777.3 0 731.7 0 686 0C640.3 0 594.7 0 548.8 0C503 0 457 0 411.2 0C365.3 0 319.7 0 274 0C228.3 0 182.7 0 137 0C91.3 0 45.7 0 22.8 0L0 0Z" fill="#f81b57"></path><path d="M0 59L22.8 58.3C45.7 57.7 91.3 56.3 137 57C182.7 57.7 228.3 60.3 274 61.8C319.7 63.3 365.3 63.7 411.2 63.7C457 63.7 503 63.3 548.8 65.8C594.7 68.3 640.3 73.7 686 76.2C731.7 78.7 777.3 78.3 823 77C868.7 75.7 914.3 73.3 937.2 72.2L960 71L960 0L937.2 0C914.3 0 868.7 0 823 0C777.3 0 731.7 0 686 0C640.3 0 594.7 0 548.8 0C503 0 457 0 411.2 0C365.3 0 319.7 0 274 0C228.3 0 182.7 0 137 0C91.3 0 45.7 0 22.8 0L0 0Z" fill="#f02a4a"></path><path d="M0 33L22.8 32C45.7 31 91.3 29 137 31C182.7 33 228.3 39 274 41.5C319.7 44 365.3 43 411.2 41.7C457 40.3 503 38.7 548.8 38.7C594.7 38.7 640.3 40.3 686 43.8C731.7 47.3 777.3 52.7 823 55C868.7 57.3 914.3 56.7 937.2 56.3L960 56L960 0L937.2 0C914.3 0 868.7 0 823 0C777.3 0 731.7 0 686 0C640.3 0 594.7 0 548.8 0C503 0 457 0 411.2 0C365.3 0 319.7 0 274 0C228.3 0 182.7 0 137 0C91.3 0 45.7 0 22.8 0L0 0Z" fill="#e7363d"></path><path d="M0 21L22.8 21.5C45.7 22 91.3 23 137 25.3C182.7 27.7 228.3 31.3 274 31.5C319.7 31.7 365.3 28.3 411.2 27.8C457 27.3 503 29.7 548.8 30.3C594.7 31 640.3 30 686 27.5C731.7 25 777.3 21 823 22C868.7 23 914.3 29 937.2 32L960 35L960 0L937.2 0C914.3 0 868.7 0 823 0C777.3 0 731.7 0 686 0C640.3 0 594.7 0 548.8 0C503 0 457 0 411.2 0C365.3 0 319.7 0 274 0C228.3 0 182.7 0 137 0C91.3 0 45.7 0 22.8 0L0 0Z" fill="#dd3f31"></path></svg>